<svg id="visual" viewBox="0 0 1920 1080" width="1920" height="1080" xmlns="http://www.w3.org/2000/svg" xmlns:xlink="http://www.w3.org/1999/xlink" version="1.1"><rect x="0" y="0" width="1920" height="1080" fill="#fff"></rect><g transform="translate(1961.9454537487409 74.24730738324757)"><path d="M568.8 -989.5C687.6 -916.6 700.2 -664 768.8 -469.2C837.5 -274.3 962.2 -137.2 985.2 13.2C1008.1 163.7 929.3 327.3 826.5 463C723.6 598.7 596.8 706.4 455.1 778.9C313.3 851.4 156.7 888.7 22.1 850.4C-112.5 812.2 -225 698.4 -377.6 632.1C-530.1 565.9 -722.8 547.2 -863.5 449.8C-1004.3 352.3 -1093.1 176.2 -1069.2 13.8C-1045.2 -148.5 -908.4 -297 -793.4 -439C-678.4 -581.1 -585.2 -716.6 -456.6 -783.9C-328 -851.1 -164 -850.1 30.5 -902.9C225 -955.7 450 -1062.4 568.8 -989.5" fill="#570df8"></path></g></svg>