<svg id="visual" viewBox="0 0 960 150" width="960" height="150" xmlns="http://www.w3.org/2000/svg" xmlns:xlink="http://www.w3.org/1999/xlink" version="1.1"><rect x="0" y="0" width="960" height="150" fill="#fff"></rect><path d="M0 98L12.3 102.5C24.7 107 49.3 116 74 110.8C98.7 105.7 123.3 86.3 148 80.3C172.7 74.3 197.3 81.7 221.8 86.3C246.3 91 270.7 93 295.2 89.3C319.7 85.7 344.3 76.3 369 71.3C393.7 66.3 418.3 65.7 443 69.7C467.7 73.7 492.3 82.3 517 88.8C541.7 95.3 566.3 99.7 591 94.8C615.7 90 640.3 76 664.8 70.3C689.3 64.7 713.7 67.3 738.2 72.7C762.7 78 787.3 86 812 93.3C836.7 100.7 861.3 107.3 886 103.3C910.7 99.3 935.3 84.7 947.7 77.3L960 70L960 0L947.7 0C935.3 0 910.7 0 886 0C861.3 0 836.7 0 812 0C787.3 0 762.7 0 738.2 0C713.7 0 689.3 0 664.8 0C640.3 0 615.7 0 591 0C566.3 0 541.7 0 517 0C492.3 0 467.7 0 443 0C418.3 0 393.7 0 369 0C344.3 0 319.7 0 295.2 0C270.7 0 246.3 0 221.8 0C197.3 0 172.7 0 148 0C123.3 0 98.7 0 74 0C49.3 0 24.7 0 12.3 0L0 0Z" fill="#ffffff"></path><path d="M0 97L12.3 90.2C24.7 83.3 49.3 69.7 74 67.7C98.7 65.7 123.3 75.3 148 80.7C172.7 86 197.3 87 221.8 80.2C246.3 73.3 270.7 58.7 295.2 53.7C319.7 48.7 344.3 53.3 369 53.7C393.7 54 418.3 50 443 54.2C467.7 58.3 492.3 70.7 517 75.8C541.7 81 566.3 79 591 80C615.7 81 640.3 85 664.8 79.3C689.3 73.7 713.7 58.3 738.2 55.3C762.7 52.3 787.3 61.7 812 65.5C836.7 69.3 861.3 67.7 886 64C910.7 60.3 935.3 54.7 947.7 51.8L960 49L960 0L947.7 0C935.3 0 910.7 0 886 0C861.3 0 836.7 0 812 0C787.3 0 762.7 0 738.2 0C713.7 0 689.3 0 664.8 0C640.3 0 615.7 0 591 0C566.3 0 541.7 0 517 0C492.3 0 467.7 0 443 0C418.3 0 393.7 0 369 0C344.3 0 319.7 0 295.2 0C270.7 0 246.3 0 221.8 0C197.3 0 172.7 0 148 0C123.3 0 98.7 0 74 0C49.3 0 24.7 0 12.3 0L0 0Z" fill="#d6b5ff"></path><path d="M0 63L12.3 62.7C24.7 62.3 49.3 61.7 74 62.2C98.7 62.7 123.3 64.3 148 62.2C172.7 60 197.3 54 221.8 49.2C246.3 44.3 270.7 40.7 295.2 40.8C319.7 41 344.3 45 369 48.8C393.7 52.7 418.3 56.3 443 59.7C467.7 63 492.3 66 517 67.5C541.7 69 566.3 69 591 62.8C615.7 56.7 640.3 44.3 664.8 39.2C689.3 34 713.7 36 738.2 37.3C762.7 38.7 787.3 39.3 812 38C836.7 36.7 861.3 33.3 886 32.5C910.7 31.7 935.3 33.3 947.7 34.2L960 35L960 0L947.7 0C935.3 0 910.7 0 886 0C861.3 0 836.7 0 812 0C787.3 0 762.7 0 738.2 0C713.7 0 689.3 0 664.8 0C640.3 0 615.7 0 591 0C566.3 0 541.7 0 517 0C492.3 0 467.7 0 443 0C418.3 0 393.7 0 369 0C344.3 0 319.7 0 295.2 0C270.7 0 246.3 0 221.8 0C197.3 0 172.7 0 148 0C123.3 0 98.7 0 74 0C49.3 0 24.7 0 12.3 0L0 0Z" fill="#a36bfc"></path><path d="M0 11L12.3 10.2C24.7 9.3 49.3 7.7 74 12C98.7 16.3 123.3 26.7 148 30.3C172.7 34 197.3 31 221.8 26.8C246.3 22.7 270.7 17.3 295.2 16.7C319.7 16 344.3 20 369 19.5C393.7 19 418.3 14 443 17C467.7 20 492.3 31 517 35C541.7 39 566.3 36 591 31.2C615.7 26.3 640.3 19.7 664.8 20.8C689.3 22 713.7 31 738.2 30.8C762.7 30.7 787.3 21.3 812 15.7C836.7 10 861.3 8 886 10.8C910.7 13.7 935.3 21.3 947.7 25.2L960 29L960 0L947.7 0C935.3 0 910.7 0 886 0C861.3 0 836.7 0 812 0C787.3 0 762.7 0 738.2 0C713.7 0 689.3 0 664.8 0C640.3 0 615.7 0 591 0C566.3 0 541.7 0 517 0C492.3 0 467.7 0 443 0C418.3 0 393.7 0 369 0C344.3 0 319.7 0 295.2 0C270.7 0 246.3 0 221.8 0C197.3 0 172.7 0 148 0C123.3 0 98.7 0 74 0C49.3 0 24.7 0 12.3 0L0 0Z" fill="#570df8"></path></svg>