<svg id="visual" viewBox="0 0 960 150" width="960" height="150" xmlns="http://www.w3.org/2000/svg" xmlns:xlink="http://www.w3.org/1999/xlink" version="1.1"><rect x="0" y="0" width="960" height="150" fill="#f2f2f2"></rect><path d="M0 22L22.8 29C45.7 36 91.3 50 137 59.8C182.7 69.7 228.3 75.3 274 71.3C319.7 67.3 365.3 53.7 411.2 53.2C457 52.7 503 65.3 548.8 69C594.7 72.7 640.3 67.3 686 62.5C731.7 57.7 777.3 53.3 823 47.7C868.7 42 914.3 35 937.2 31.5L960 28L960 151L937.2 151C914.3 151 868.7 151 823 151C777.3 151 731.7 151 686 151C640.3 151 594.7 151 548.8 151C503 151 457 151 411.2 151C365.3 151 319.7 151 274 151C228.3 151 182.7 151 137 151C91.3 151 45.7 151 22.8 151L0 151Z" fill="#f2f2f2"></path><path d="M0 63L22.8 67.8C45.7 72.7 91.3 82.3 137 80.5C182.7 78.7 228.3 65.3 274 58.7C319.7 52 365.3 52 411.2 49C457 46 503 40 548.8 40.3C594.7 40.7 640.3 47.3 686 53C731.7 58.7 777.3 63.3 823 69.8C868.7 76.3 914.3 84.7 937.2 88.8L960 93L960 151L937.2 151C914.3 151 868.7 151 823 151C777.3 151 731.7 151 686 151C640.3 151 594.7 151 548.8 151C503 151 457 151 411.2 151C365.3 151 319.7 151 274 151C228.3 151 182.7 151 137 151C91.3 151 45.7 151 22.8 151L0 151Z" fill="#d7bef6"></path><path d="M0 59L22.8 67.2C45.7 75.3 91.3 91.7 137 96.2C182.7 100.7 228.3 93.3 274 88.3C319.7 83.3 365.3 80.7 411.2 85.5C457 90.3 503 102.7 548.8 99.5C594.7 96.3 640.3 77.7 686 71.3C731.7 65 777.3 71 823 73.7C868.7 76.3 914.3 75.7 937.2 75.3L960 75L960 151L937.2 151C914.3 151 868.7 151 823 151C777.3 151 731.7 151 686 151C640.3 151 594.7 151 548.8 151C503 151 457 151 411.2 151C365.3 151 319.7 151 274 151C228.3 151 182.7 151 137 151C91.3 151 45.7 151 22.8 151L0 151Z" fill="#b78af8"></path><path d="M0 95L22.8 93.7C45.7 92.3 91.3 89.7 137 87.5C182.7 85.3 228.3 83.7 274 88C319.7 92.3 365.3 102.7 411.2 109.2C457 115.7 503 118.3 548.8 113C594.7 107.7 640.3 94.3 686 89.8C731.7 85.3 777.3 89.7 823 91.3C868.7 93 914.3 92 937.2 91.5L960 91L960 151L937.2 151C914.3 151 868.7 151 823 151C777.3 151 731.7 151 686 151C640.3 151 594.7 151 548.8 151C503 151 457 151 411.2 151C365.3 151 319.7 151 274 151C228.3 151 182.7 151 137 151C91.3 151 45.7 151 22.8 151L0 151Z" fill="#9055f9"></path><path d="M0 122L22.8 123.8C45.7 125.7 91.3 129.3 137 128.2C182.7 127 228.3 121 274 121.2C319.7 121.3 365.3 127.7 411.2 130.8C457 134 503 134 548.8 132.8C594.7 131.7 640.3 129.3 686 129.3C731.7 129.3 777.3 131.7 823 131.5C868.7 131.3 914.3 128.7 937.2 127.3L960 126L960 151L937.2 151C914.3 151 868.7 151 823 151C777.3 151 731.7 151 686 151C640.3 151 594.7 151 548.8 151C503 151 457 151 411.2 151C365.3 151 319.7 151 274 151C228.3 151 182.7 151 137 151C91.3 151 45.7 151 22.8 151L0 151Z" fill="#570df8"></path></svg>